<svg width="128" height="128" viewBox="0 0 128 128" fill="none" xmlns="http://www.w3.org/2000/svg">
<g opacity="0.5" clip-path="url(#clip0_8436_421)">
<path d="M17.5072 63.2475C18.895 63.1907 20.0575 64.2765 20.1095 65.6615C20.1227 66.02 20.1407 66.3772 20.1625 66.7335C20.248 68.117 19.1957 69.3077 17.8122 69.3935C17.7595 69.397 17.707 69.3985 17.6552 69.3985C16.3397 69.3985 15.2347 68.3742 15.1525 67.0435C15.128 66.647 15.1082 66.249 15.0932 65.8497C15.0412 64.4647 16.122 63.2995 17.5072 63.2475Z" fill="#FF0000"/>
<path d="M3.83475 42.0897C3.4485 41.346 3.45 40.4393 3.88425 39.6833C4.194 39.144 4.6815 38.7562 5.23925 38.563C8.403 31.2587 12.9475 24.5427 18.7455 18.7447C30.8332 6.657 46.905 0 64 0C81.095 0 97.1667 6.657 109.255 18.7453C121.343 30.8335 128 46.905 128 64C128 73.0968 126.107 81.9005 122.522 89.9715C123.767 91.3552 124.449 93.1263 124.449 95.0025C124.449 97.0138 123.666 98.9045 122.244 100.326C120.776 101.794 118.848 102.528 116.92 102.528C116.361 102.528 115.802 102.464 115.253 102.34C113.435 104.763 111.434 107.075 109.255 109.255C106.154 112.355 102.787 115.092 99.2113 117.457C100.085 120.079 99.4813 123.088 97.3983 125.172C95.9303 126.64 94.0022 127.373 92.0742 127.373C90.1462 127.373 88.218 126.64 86.7503 125.172L85.7863 124.208C78.893 126.698 71.547 128 64 128C46.905 128 30.8332 121.343 18.7452 109.255C6.65725 97.1665 0 81.095 0 64C0 56.4078 1.316 49.0187 3.83475 42.0897ZM122.981 64C122.981 31.4782 96.522 5.0195 64 5.0195C60.1878 5.0195 56.4617 5.39075 52.8497 6.08625L61.6255 14.8617C62.6073 14.948 63.5177 15.0588 64 15.0588C90.9862 15.0588 112.941 37.0138 112.941 64C112.941 68.9567 112.197 73.7423 110.82 78.2548L118.674 86.108C121.447 79.2765 122.981 71.8148 122.981 64ZM72.844 33.7897L72.7752 34.8995C72.5782 38.0773 73.7565 41.1908 76.0078 43.442L106.732 74.1655C107.508 70.9015 107.922 67.4985 107.922 64C107.922 40.7708 89.7943 21.6988 66.943 20.1793L68.151 21.3873C71.4193 24.6555 73.1298 29.1762 72.844 33.7897ZM118.695 96.777C119.169 96.303 119.43 95.673 119.43 95.0025C119.43 94.332 119.169 93.7018 118.695 93.2278L72.4585 46.9917C69.1902 43.7232 67.4795 39.2025 67.7655 34.5892L67.8343 33.4795C68.031 30.3017 66.853 27.1883 64.6015 24.937L47.189 7.525C47.1155 7.45175 47.0495 7.37375 46.987 7.294L46.5092 7.66725C44.9395 8.15575 43.398 8.70825 41.8875 9.32175L59.7155 27.15C60.6955 28.13 60.6955 29.7192 59.7155 30.6995C59.2255 31.1895 58.583 31.4345 57.9408 31.4345C57.2985 31.4345 56.656 31.1892 56.166 30.6995L37.4725 12.006C37.3248 11.8582 37.202 11.6953 37.0987 11.524C35.5295 12.332 34.002 13.2092 32.5178 14.15L33.9228 15.5553L52.6165 34.2487C53.5965 35.2287 53.5965 36.818 52.6165 37.7982C52.1265 38.2882 51.484 38.5332 50.8418 38.5332C50.1995 38.5332 49.557 38.288 49.067 37.7982L28.3317 17.0627C20.6497 22.9145 14.4425 30.6048 10.3702 39.4728L17.5518 41.3633C29.7913 44.5853 40.991 51.0187 49.9402 59.968L60.1923 70.2203C62.1983 72.2263 63.2293 74.9998 63.021 77.829C62.9198 79.2015 63.42 80.5467 64.393 81.52L85.2757 102.402C91.2162 99.0987 96.3137 94.4612 100.16 88.892L65.359 54.0905C63.1078 51.839 59.9938 50.6637 56.816 50.8575L55.7065 50.926C51.0932 51.2137 46.5725 49.5013 43.304 46.233L23.274 26.203C22.294 25.223 22.294 23.6337 23.274 22.6535C24.254 21.6737 25.8433 21.6737 26.8235 22.6535L46.8535 42.6835C49.1045 44.935 52.2175 46.1115 55.3965 45.9165L56.506 45.848C61.118 45.56 65.64 47.2728 68.9085 50.541L115.145 96.777C116.124 97.7558 117.716 97.7553 118.695 96.777ZM110.935 99.6655L103.762 92.4932C99.8208 97.9772 94.7755 102.614 88.953 106.079L96.236 113.362C101.881 109.662 106.854 105.022 110.935 99.6655ZM90.2993 121.622C91.278 122.601 92.8703 122.601 93.8488 121.623C94.8273 120.644 94.8273 119.052 93.8488 118.074L60.844 85.069C58.838 83.0628 57.8068 80.2892 58.0153 77.46C58.1165 76.0877 57.6162 74.742 56.643 73.769L46.3913 63.517C38.0695 55.1952 27.6552 49.213 16.2742 46.2173L14.4003 45.7238L90.2993 121.622ZM64 122.98C70.2045 122.98 76.187 122.015 81.808 120.23L73.5757 111.998C70.478 112.615 67.2765 112.941 63.9997 112.941C54.5205 112.941 45.318 110.215 37.387 105.058C29.6653 100.036 23.5273 92.984 19.6373 84.6628C19.0503 83.407 19.592 81.9132 20.8477 81.3262C22.104 80.7387 23.5975 81.281 24.1842 82.5368C31.3942 97.9575 47.0228 107.922 64 107.922C65.7563 107.922 67.488 107.815 69.1905 107.613L7.77075 46.1932C5.98625 51.8142 5.0195 57.7957 5.0195 63.9997C5.0195 96.5217 31.478 122.98 64 122.98Z" fill="#FF0000"/>
</g>
<defs>
<clipPath id="clip0_8436_421">
<rect width="128" height="128" fill="white" transform="matrix(-1 0 0 1 128 0)"/>
</clipPath>
</defs>
</svg>
